<svg xmlns="http://www.w3.org/2000/svg" width="375" height="375" version="1.0"><defs><clipPath id="a"><path d="M22.555 11.867h323.25V200H22.555Zm0 0"/></clipPath><clipPath id="b"><path d="M132 70h202v174.367H132Zm0 0"/></clipPath></defs><g clip-path="url(#a)"><path fill="#d7d7d7" d="m126.578 180.059 11.438-3.075a64.789 64.789 0 0 0 3.191-.886 82.44 82.44 0 0 0 2.48-.77l5.676-1.742 11.348-3.488c9.398-3.192 18.797-6.473 28.105-10.078a357.49 357.49 0 0 0 13.149-5.407c1.125-.504 2.277-.976 3.398-1.476l5.528-2.395c1.832-.797 3.636-1.715 5.437-2.57l10.875-5.23 10.7-5.676 2.687-1.418 2.629-1.536 5.261-3.074c14.008-8.304 27.602-17.613 40.458-28.34.62-.503 1.21-1.035 1.832-1.539 2.601-2.187 5.171-4.402 7.652-6.765l4.64-4.317 4.493-4.55c3.043-2.985 5.851-6.266 8.777-9.457 1.45-1.594 2.777-3.34 4.195-4.993 1.391-1.683 2.778-3.34 4.078-5.144a181.094 181.094 0 0 0 8.57-12.086s4.11 3.043 7.626 5.762c2.57 2.011 4.847 3.812 4.875 4.05 0 0-1.446-6.234-1.98-8.66-2.747-12.027-9.93-43.234-9.93-43.234l-36.051 17.879-9.664 4.789s2.543 1.242 5.469 2.719c4.046 2.039 8.804 4.52 8.566 4.757l-2.512 3.633c-.945 1.598-2.008 3.133-3.043 4.7-1.062 1.538-2.039 3.132-3.16 4.64-1.035 1.39-2.07 2.809-3.105 4.195-1.211 1.625-2.422 3.223-3.75 4.79l-3.579 4.402-3.78 4.254c-2.454 2.898-5.145 5.586-7.802 8.304-10.668 10.848-22.43 20.778-34.812 29.88l-4.672 3.398-2.332 1.715-2.394 1.593-9.633 6.414-9.871 6.028c-1.657.976-3.282 2.039-4.965 2.984l-5.055 2.809c-13.414 7.714-27.484 14.332-41.61 20.804l-10.726 4.52-4.078 1.715-1.3.562c-1.802.77-3.575 1.508-5.407 2.188l-10.906 4.136c-3.633 1.391-7.27 2.809-10.965 4.02-29.402 10.371-59.547 18.793-90.074 25.828 31.058-3.902 62.03-9.219 92.648-16.637 3.781-.859 7.563-1.894 11.375-2.925Zm0 0"/></g><path fill="#071042" d="m109.469 164.363.176-.058c3.398-1.121 6.77-2.39 10.316-3.75l11.227-4.258a99.302 99.302 0 0 0 5.085-2.04l4.875-2.066 11.172-4.699c13.297-6.09 27.364-12.68 40.75-20.39l5.172-2.868c.977-.53 1.922-1.125 2.867-1.714.621-.383 1.243-.77 1.86-1.153l9.664-5.91 10.55-7.035 1.184-.797 6.856-4.992a318.945 318.945 0 0 0 17.82-14.13A248.603 248.603 0 0 0 264.91 73.73l1.3-1.332c2.157-2.214 4.196-4.312 6.06-6.5l.117-.148 3.636-4.078 3.575-4.402c1.566-1.864 3.047-3.872 4.609-6 .207-.266.414-.563.621-.829-2.363-2.894-5.11-5.406-8.242-7.562-.031-.031-.063-.031-.063-.031-10.28-7.004-23.375-11.29-39.894-12.203H129.207l11.559 13.148.351 105.324c-1.508.707-3.012 1.418-4.55 2.125l-14.036 6.266-14.273 5.734c-2.395.946-4.758 1.95-7.153 2.836l-7.242 2.602-14.48 5.23 14.687-4.492 4.078-1.242a310.05 310.05 0 0 0 11.32-3.813Zm79.375-97.843h38.39c8.805 0 16.282 4.816 19.77 11.996-.473.445-.977.918-1.45 1.359l-5.585 5.32c-8.985 8.364-18.559 16.047-28.489 23.227h-22.664V66.52Zm0 0"/><g clip-path="url(#b)"><path fill="#071042" d="m253.121 139.957-8.246 4.816-13.71 7.27-5.411 2.602-5.465 2.628c-.71.325-1.3.622-1.89.915-1.301.62-2.575 1.242-3.903 1.804L209 162.355c-6.71 3.016-13.477 5.735-20.184 8.274-8.543 3.223-16.964 6.148-25.12 8.926l-.235.09-17.055 5.23c-1.89.59-3.574 1.094-5.199 1.508l.031 4.902.117 37.414-9.042 15.309h115.19c24.974 0 48.704-20.805 56.18-43.473 2.188-5.82 2.481-12.234 2.481-18.351 0-18.883-7.504-40.84-23.816-52.07a212.54 212.54 0 0 0 7.004-5.673c1.12-.945 2.273-1.832 3.367-2.808l3.222-2.985a619.61 619.61 0 0 0 6.414-6l6.055-6.41c1.008-1.093 2.04-2.129 3.016-3.222.945-1.125 1.922-2.246 2.836-3.399 7.566-9.043 14.453-18.797 19.71-29.492-1.269 1.594-2.597 3.133-3.929 4.7a141.03 141.03 0 0 1-2.48 3.07l-.122.148c-.5.594-.945 1.152-1.386 1.684-.977 1.183-1.95 2.394-3.075 3.636-.68.739-1.359 1.508-2.039 2.246-2.246 2.48-4.55 5.055-7.062 7.536l-4.727 4.757-4.582 4.258c-2.808 2.688-5.675 5.11-8.453 7.477l-1.387 1.152c-5.91 4.934-12.058 9.633-18.5 14.215a330.104 330.104 0 0 1-23.109 14.953Zm4.078 38.563c0 11.94-10.61 23.554-23.11 23.554h-45.273v-23.406a625.398 625.398 0 0 0 10.403-3.516l15.957-6.324c1.328-.531 2.66-1.066 3.96-1.656l3.9-1.832 7.804-3.633a339.322 339.322 0 0 0 10.754-5.469c9.222 3.399 15.605 11.762 15.605 22.282Zm0 0"/></g><path fill="#071042" d="M71.27 288.94c3.333.782 5.923 2.387 7.766 4.813 1.852 2.418 2.782 5.215 2.782 8.39 0 4.844-1.606 8.587-4.813 11.22-3.2 2.624-7.793 3.937-13.781 3.937H34.239v-55.313h28.204c5.625 0 10.05 1.227 13.28 3.672 3.227 2.45 4.845 6.016 4.845 10.703 0 3.23-.852 5.953-2.547 8.172-1.688 2.211-3.938 3.68-6.75 4.406Zm-19.687-5.39h6.719c1.562 0 2.719-.313 3.469-.938.758-.625 1.14-1.586 1.14-2.89 0-1.352-.382-2.352-1.14-3-.75-.657-1.907-.985-3.469-.985h-6.719Zm7.89 19.844c1.563 0 2.72-.297 3.47-.891.757-.602 1.14-1.582 1.14-2.938 0-2.656-1.539-3.984-4.61-3.984h-7.89v7.813Zm85.23-41.407-19.844 38.516V317.3h-17.344v-16.797l-19.843-38.516h19.843l8.829 19.61 8.828-19.61Zm51.244 0v13.75H181.26V317.3h-17.344v-41.563h-14.531v-13.75Zm25.933 13.828v6.797h17.187v13.047H221.88v7.813h19.531V317.3h-36.875v-55.313h36.875v13.828Zm0 0"/><path fill="#d7d7d7" d="M269.224 261.987V317.3H251.88v-55.313Zm64.763 55.313h-17.344l-18.36-27.813V317.3H280.94v-55.313h17.344l18.36 28.282v-28.282h17.343Zm0 0"/></svg>